# xmcd CD database file
# Copyright (C) 1995 Ti Kan
#
# Track frame offsets:
#	150
#	16632
#	31707
#
# Disc length: 609 seconds
#
# Revision: 1
# Processed by: cddbd v1.4PL0 Copyright (c) Steve Scherf et al.
# Submitted via: NotifyCDPlayer(CDDB) 1.60beta5_freedb
#
DISCID=0f025f03
DTITLE=Johnny Cash - Hurt - Personal Jesus
DYEAR=1900
DGENRE=
TTITLE0=Hurt
TTITLE1=Personal Jesus
TTITLE2=Wichita Lineman
EXTD=
EXTT0=
EXTT1=
EXTT2=
PLAYORDER=
